<?xml version="1.0" encoding="utf-8"?>
<!-- Generator: Adobe Illustrator 25.0.0, SVG Export Plug-In . SVG Version: 6.00 Build 0)  -->
<svg version="1.1" id="Layer_1" xmlns="http://www.w3.org/2000/svg" xmlns:xlink="http://www.w3.org/1999/xlink" x="0px" y="0px"
	 viewBox="0 0 500 500" style="enable-background:new 0 0 500 500;" xml:space="preserve">
<style type="text/css">
	.st0{fill:#001C5C;}
	.st1{fill:url(#SVGID_1_);}
	.st2{fill:#465A89;}
	.st3{fill:#60A7B2;}
	.st4{fill:url(#SVGID_2_);}
	.st5{fill:#05FFC8;}
	.st6{fill:#0089BF;}
	.st7{fill:url(#SVGID_3_);}
	.st8{fill:url(#SVGID_4_);}
	.st9{fill:url(#SVGID_5_);}
	.st10{fill:url(#SVGID_6_);}
	.st11{fill:url(#SVGID_7_);}
	.st12{fill:url(#SVGID_8_);}
</style>
<g>
	<path class="st0" d="M337.1,488.4c-46.3,11-77,3.8-96.5-5.3c-18-8.3-31.4-20.2-44.1-30.7c-15.3-12.6-29.5-23-49-22.2
		c-9.1,0.4-17.2,3.1-23.7,6.5c-4.2,2.1-7.8,4.5-10.7,6.6c0.8-3.3,2.1-8.5,4.5-14.4c4.1-10.1,11.2-22.7,23.6-33.5
		c25.3-22.2,61.9-27.7,89.8-16.4c1.1,0.4,2.2,0.9,3.3,1.4c30,13.7,46.6,45.3,49.8,51.4c7.1,13.4,9.7,24.8,22.5,37.5
		C317,479.7,328.7,485.4,337.1,488.4z"/>
	<radialGradient id="SVGID_1_" cx="164.5357" cy="387.6074" r="64.5511" gradientUnits="userSpaceOnUse">
		<stop  offset="6.670000e-02" style="stop-color:#000000"/>
		<stop  offset="0.1634" style="stop-color:#0E191A;stop-opacity:0.8218"/>
		<stop  offset="0.3709" style="stop-color:#32585E;stop-opacity:0.4396"/>
		<stop  offset="0.6094" style="stop-color:#60A7B2;stop-opacity:0"/>
	</radialGradient>
	<path class="st1" d="M235.5,393.2c0,26.6-16.1,49.4-39,59.1c-15.3-12.6-29.5-23-49-22.2c-9.1,0.4-17.2,3.1-23.7,6.5
		c-2.2-2.4-4.4-5.1-6.2-7.9c4.1-10.1,11.2-22.7,23.6-33.5c25.3-22.2,61.9-27.7,89.8-16.4c1.1,0.4,2.2,0.9,3.3,1.4
		C235,384.5,235.5,388.8,235.5,393.2z"/>
	<path class="st2" d="M180.6,404.4c-9.6,0.1-67.2-0.4-106.8-45.4c-33.8-38.5-33.9-84.1-33.7-97.3c0.4-24,6.5-43.1,11.4-54.9
		c1.6,11.1,5.7,28.6,17.8,45.1c11.3,15.5,25.7,24.6,40.5,31c7.8,3.4,15.7,6.1,23.5,8.6c3.9,1.3,7.8,2.5,11.7,3.8l0,0
		c10.8,3.6,20.8,7.4,29,13.2c5.8,4,10.8,9,14.5,15.4C196.1,336.9,200.9,360.4,180.6,404.4z"/>
	<path class="st3" d="M184.4,153.4c11.5,25.4,34.6,44.6,31.1,73c-2.4,19.3-17.6,45.3-77.3,71.8c-2.4-3.6-6.3-8.9-11.4-15
		c-15.5-18.8-27.4-26.6-34.6-33.5c-22.2-21.4-24.9-59.9-19.9-84.6c6-29.7,24.8-47.7,42.6-64.2C159.1,59.8,211.2,45,245,39.2
		c-16.7,10.6-34.8,24.1-48,40.5c-10.8,13.2-18.2,28.3-18.7,45.1C178,135.4,180.5,144.7,184.4,153.4z"/>
	<linearGradient id="SVGID_2_" gradientUnits="userSpaceOnUse" x1="175.6312" y1="187.9127" x2="159.4099" y2="104.5443">
		<stop  offset="0.3906" style="stop-color:#60A7B2;stop-opacity:0"/>
		<stop  offset="0.6291" style="stop-color:#32585E;stop-opacity:0.4396"/>
		<stop  offset="0.8366" style="stop-color:#0E191A;stop-opacity:0.8218"/>
		<stop  offset="0.9333" style="stop-color:#000000"/>
	</linearGradient>
	<path class="st4" d="M197.1,79.6c-10.8,13.2-18.2,28.3-18.7,45.1c-0.3,10.7-0.8,24.1,24.2,59.1c0,0-39.3,55.2-70,4.3
		c19.2-79.9,64.8-110.2,64.8-110.2L197.1,79.6z"/>
	<path class="st5" d="M416.2,85.5c-7.7,34.4-20.3,91-68.2,113.3c-5.4,2.5-37.3,17.3-68.6,5.2c-37.3-14.5-39.2-54-76.1-66.8
		c-20.3-7.1-40.4-2.3-53.6,2.5c22.7-47.7,49.5-65.7,68.6-73.5c13.1-5.4,25.9-7.4,38.5-7.5c43.1-0.6,83.6,19.6,123.1-3.5
		C402.7,41.8,414.6,20,420.7,6c0.4,4.5,0.9,9.8,1.2,15.5C422.6,38.7,421.8,60.7,416.2,85.5z"/>
	<path class="st6" d="M407.1,231.9c3.8-2.1,6.4-6.2,6.4-10.8c0-4.7-2.6-8.7-6.4-10.8c-1.8-1-3.8-1.6-6.1-1.6
		c-6.8,0-12.4,5.6-12.4,12.5V320c5.4,1.8,9.4,6.9,9.4,12.9c0,7.3-5.8,13.2-13,13.6c-7.2-0.3-13-6.3-13-13.6c0-6.1,3.9-11.2,9.4-12.9
		v-98.9c0-6.8-5.6-12.5-12.4-12.5c-2.2,0-4.3,0.6-6.1,1.6c-3.8,2.1-6.4,6.2-6.4,10.8c0,4.6,2.6,8.6,6.4,10.8
		c-2.4,53.6-20.9,101.3-52.7,140.3c20.9,22.3,26.9,33.1,32.4,61.4H364v-36.2c0-11.8,9.4-21.3,21-21.6c11.7,0.3,21,9.9,21,21.6v36.2
		h21.4c5.4-28.3,11.5-39.1,32.4-61.4C428,333.2,409.5,285.6,407.1,231.9z"/>
	<radialGradient id="SVGID_3_" cx="140.2514" cy="291.2248" r="43.1979" gradientUnits="userSpaceOnUse">
		<stop  offset="0" style="stop-color:#000000"/>
		<stop  offset="2.910000e-02" style="stop-color:#090F10;stop-opacity:0.9627"/>
		<stop  offset="0.1155" style="stop-color:#20373B;stop-opacity:0.8516"/>
		<stop  offset="0.2065" style="stop-color:#345A60;stop-opacity:0.7348"/>
		<stop  offset="0.301" style="stop-color:#44767E;stop-opacity:0.6133"/>
		<stop  offset="0.4004" style="stop-color:#508C95;stop-opacity:0.4856"/>
		<stop  offset="0.5067" style="stop-color:#599BA5;stop-opacity:0.349"/>
		<stop  offset="0.6249" style="stop-color:#5EA4AF;stop-opacity:0.1972"/>
		<stop  offset="0.7784" style="stop-color:#60A7B2;stop-opacity:0"/>
	</radialGradient>
	<path class="st7" d="M152.4,331.3c-27.6,2.1-46.6-14.9-46.8-35.5c-0.1-6.5,1.6-10.8,4.3-12.9c7.8,3.4,15.7,6.1,23.5,8.6l4.9,6.8
		l6.7-3.1l0,0c10.8,3.6,20.8,7.4,29,13.2C174.3,316.4,171.5,329.8,152.4,331.3z"/>
	<radialGradient id="SVGID_4_" cx="342.9664" cy="22.4471" r="176.2689" gradientUnits="userSpaceOnUse">
		<stop  offset="6.670000e-02" style="stop-color:#FFFFFF"/>
		<stop  offset="0.1381" style="stop-color:#E5FFF9;stop-opacity:0.8685"/>
		<stop  offset="0.2912" style="stop-color:#A1FFEA;stop-opacity:0.5864"/>
		<stop  offset="0.5122" style="stop-color:#36FFD3;stop-opacity:0.1791"/>
		<stop  offset="0.6094" style="stop-color:#05FFC8;stop-opacity:0"/>
	</radialGradient>
	<path class="st8" d="M421.9,21.6c-3,46-41.3,82.4-88.1,82.4c-33.2,0-62-18.2-77.1-45.2c43.1-0.6,83.6,19.6,123.1-3.5
		c22.9-13.5,34.8-35.2,40.9-49.2C421.3,10.5,421.6,15.8,421.9,21.6z"/>
	
		<radialGradient id="SVGID_5_" cx="313.8292" cy="257.6548" r="70.7213" gradientTransform="matrix(0.9764 0.2161 -0.3577 1.6163 78.782 -181.8571)" gradientUnits="userSpaceOnUse">
		<stop  offset="0" style="stop-color:#FFFFFF"/>
		<stop  offset="9.350000e-02" style="stop-color:#F9FCFD"/>
		<stop  offset="0.2185" style="stop-color:#E8F4F9"/>
		<stop  offset="0.3612" style="stop-color:#CCE7F2"/>
		<stop  offset="0.5172" style="stop-color:#A5D5E8"/>
		<stop  offset="0.6839" style="stop-color:#73BEDC"/>
		<stop  offset="0.8567" style="stop-color:#37A3CD"/>
		<stop  offset="1" style="stop-color:#0089BF"/>
	</radialGradient>
	<path class="st9" d="M310.2,372.2c6,6.5,12.1,12.7,17,20.2c24.5-34.9,38.4-76.6,38.5-122.5c0-12.1-1-23.9-2.9-35.5
		C359.9,286.4,340.7,334,310.2,372.2z"/>
	
		<radialGradient id="SVGID_6_" cx="369.1311" cy="143.3006" r="6.902" gradientTransform="matrix(0.8774 0.4797 -0.2412 0.4411 83.1134 -25.9047)" gradientUnits="userSpaceOnUse">
		<stop  offset="0" style="stop-color:#FFFFFF;stop-opacity:0.2"/>
		<stop  offset="0.1572" style="stop-color:#FCFDFD;stop-opacity:0.1686"/>
		<stop  offset="0.287" style="stop-color:#F1F6F8;stop-opacity:0.1426"/>
		<stop  offset="0.4071" style="stop-color:#E0EAF0;stop-opacity:0.1186"/>
		<stop  offset="0.5213" style="stop-color:#C8DAE3;stop-opacity:9.570000e-02"/>
		<stop  offset="0.6314" style="stop-color:#A9C5D4;stop-opacity:7.370000e-02"/>
		<stop  offset="0.7385" style="stop-color:#82ABC0;stop-opacity:5.230000e-02"/>
		<stop  offset="0.843" style="stop-color:#548DA9;stop-opacity:3.140000e-02"/>
		<stop  offset="0.9429" style="stop-color:#216A90;stop-opacity:1.140000e-02"/>
		<stop  offset="1" style="stop-color:#00547F;stop-opacity:0"/>
	</radialGradient>
	<circle class="st10" cx="369.1" cy="220.3" r="10.3"/>
	
		<radialGradient id="SVGID_7_" cx="98.4584" cy="293.7406" r="68.9628" gradientTransform="matrix(-0.9753 0.221 0.3457 1.5258 469.9156 -163.3904)" gradientUnits="userSpaceOnUse">
		<stop  offset="0" style="stop-color:#FFFFFF"/>
		<stop  offset="8.979999e-02" style="stop-color:#F2F9FC"/>
		<stop  offset="0.2566" style="stop-color:#CFE9F3"/>
		<stop  offset="0.482" style="stop-color:#97CFE5"/>
		<stop  offset="0.7539" style="stop-color:#4BACD2"/>
		<stop  offset="1" style="stop-color:#0089BF"/>
	</radialGradient>
	<path class="st11" d="M459.9,372.2c-6,6.5-12.1,12.7-17,20.2c-24.5-34.9-38.4-76.6-38.5-122.5c0-12.1,1-23.9,2.9-35.5
		C410,286.4,429.2,334,459.9,372.2z"/>
	
		<radialGradient id="SVGID_8_" cx="169.8414" cy="143.9916" r="6.902" gradientTransform="matrix(-0.8582 -0.5134 -0.2581 0.4315 587.0369 239.5332)" gradientUnits="userSpaceOnUse">
		<stop  offset="0" style="stop-color:#FFFFFF;stop-opacity:0.2"/>
		<stop  offset="0.1572" style="stop-color:#FCFDFD;stop-opacity:0.1686"/>
		<stop  offset="0.287" style="stop-color:#F1F6F8;stop-opacity:0.1426"/>
		<stop  offset="0.4071" style="stop-color:#E0EAF0;stop-opacity:0.1186"/>
		<stop  offset="0.5213" style="stop-color:#C8DAE3;stop-opacity:9.570000e-02"/>
		<stop  offset="0.6314" style="stop-color:#A9C5D4;stop-opacity:7.370000e-02"/>
		<stop  offset="0.7385" style="stop-color:#82ABC0;stop-opacity:5.230000e-02"/>
		<stop  offset="0.843" style="stop-color:#548DA9;stop-opacity:3.140000e-02"/>
		<stop  offset="0.9429" style="stop-color:#216A90;stop-opacity:1.140000e-02"/>
		<stop  offset="1" style="stop-color:#00547F;stop-opacity:0"/>
	</radialGradient>
	<circle class="st12" cx="400.8" cy="220.3" r="10.3"/>
</g>
</svg>
